<svg xmlns="http://www.w3.org/2000/svg" viewBox="30 185 412 219">
<path d="M 347.2 298.8 L 372.4 234.2 L 313.1 270.3 Z" fill="#24262B" stroke="#24262B" stroke-width="10" stroke-linejoin="round"/>
<path d="M 314.3 271.0 L 319.1 201.8 L 273.3 254.0 Z" fill="#24262B" stroke="#24262B" stroke-width="10" stroke-linejoin="round"/>
<path d="M 231.9 250.2 L 196.2 190.7 L 188.5 259.7 Z" fill="#24262B" stroke="#24262B" stroke-width="10" stroke-linejoin="round"/>
<path d="M 189.8 259.2 L 137.9 213.1 L 151.2 281.2 Z" fill="#24262B" stroke="#24262B" stroke-width="10" stroke-linejoin="round"/>
<path d="M 152.3 280.3 L 89.0 251.9 L 122.1 312.9 Z" fill="#24262B" stroke="#24262B" stroke-width="10" stroke-linejoin="round"/>
<path d="M 122.9 311.7 L 54.0 303.5 L 103.8 351.8 Z" fill="#24262B" stroke="#24262B" stroke-width="10" stroke-linejoin="round"/>
<path d="M 104.2 350.5 L 36.0 363.3 L 98.0 394.5 Z" fill="#24262B" stroke="#24262B" stroke-width="10" stroke-linejoin="round"/>
<path d="M 90.0 392.0 A 150.0 150.0 0 0 1 390.0 392.0 Z" fill="#24262B"/>
<path d="M 286 276.0 Q 352 282.0 426 356.0 Q 438 367.0 424 377.0 L 292 392.0 Z" fill="#FFFFFF"/>
<circle cx="425" cy="365.0" r="13" fill="#24262B"/>
<circle cx="354" cy="332.0" r="10" fill="#24262B"/>
</svg>
