<svg xmlns="http://www.w3.org/2000/svg" viewBox="0 0 128 128">
  <path fill="#000000" d="M23 79c0-29 20-53 47-58l-7 15 17-9-1 18 15-12 1 20 13-7-3 19 12 1-13 13 8 10-19 2-2 17-13-10-8 14-10-15-16 8 5-18-19-3 15-12z"/>
  <path fill="#000000" d="M39 79c0-20 16-36 36-36 18 0 32 12 40 27 4 7 0 15-8 16l-12 2c-6 13-19 21-35 21-12 0-22-5-29-14-2-3-1-7 3-9l9-4c-3-1-4-2-4-3z"/>
  <circle cx="91" cy="66" r="4" fill="#ffffff"/>
  <circle cx="92" cy="66" r="1.5" fill="#000000"/>
  <circle cx="116" cy="82" r="5" fill="#000000"/>
</svg>
