<svg xmlns="http://www.w3.org/2000/svg" viewBox="0 0 32 32" width="32" height="32">
  <path fill="#000000" fill-rule="evenodd" d="
    M 25.3 22.8
    L 9.7 23.2
    C 8.6 23.1 7.9 22.7 7.6 22
    L 5.6 21.6
    L 7.8 20.2
    C 7.6 18.6 8.3 16.9 9.8 16.1
    L 8.6 12.6 L 12.3 14.9
    L 11.1 9.9 L 14.3 14
    L 13.9 8.2 L 16.6 13.4
    L 16.6 7.7 L 18.6 13.3
    L 19.3 8.4 L 20.4 13.6
    C 20.6 13.4 20.9 13.3 21.1 13.3
    L 22.3 10.3
    L 23.6 14.6
    C 24.3 15.4 24.7 16.3 24.9 17.4
    Z
    M 20.6 16.7
    C 21.9 16 23.4 17.3 24.1 19.1
    C 24.3 19.9 24.6 20.9 24.7 21.6
    L 20.4 22.1
    C 20.3 20.1 20.3 18.1 20.6 16.7
    Z
  "/>
  <circle cx="22.1" cy="18.8" r="0.8" fill="#000000"/>
  <circle cx="26.6" cy="22.3" r="0.8" fill="#000000"/>
</svg>
