<svg xmlns="http://www.w3.org/2000/svg" viewBox="0 0 1024 1024" width="1024" height="1024">
  <!-- Cream rounded-square plate -->
  <rect x="100" y="100" width="824" height="824" rx="190" fill="#F2EFE9"/>
  <!-- Ink hedgehog: spikes lean toward the tail, face is a hollow wedge -->
  <path fill="#26262A" fill-rule="evenodd" d="
    M 808 730
    L 310 742
    C 276 740 252 726 244 704
    L 178 690
    L 248 646
    C 242 594 266 542 314 514
    L 276 402 L 392 478
    L 356 316 L 458 448
    L 444 262 L 530 430
    L 532 246 L 596 426
    L 618 268 L 652 436
    C 660 430 668 426 676 426
    L 712 330
    L 754 468
    C 776 492 790 520 796 556
    Z
    M 658 534
    C 702 512 748 552 770 610
    C 778 638 786 668 790 692
    L 654 706
    C 648 644 650 580 658 534
    Z
  "/>
  <!-- Eye inside the hollow face -->
  <circle cx="706" cy="600" r="20" fill="#26262A"/>
  <!-- Nose dot floating beyond the snout tip -->
  <circle cx="852" cy="712" r="25" fill="#26262A"/>
  <!-- Coral paperclip standing among the spikes -->
  <g transform="rotate(-3 586 415)" fill="none" stroke="#E1795F" stroke-width="19" stroke-linecap="round">
    <path d="M 563 505 L 563 330 A 24 24 0 0 1 611 330 L 611 486 A 16 16 0 0 1 579 486 L 579 348"/>
  </g>
</svg>
