<svg xmlns="http://www.w3.org/2000/svg" viewBox="0 0 1024 1024" width="1024" height="1024">
  <!-- Cream rounded-square plate -->
  <rect x="100" y="100" width="824" height="824" rx="186" fill="#F2EFE9"/>
  <!-- Ink hedgehog, face left as negative space -->
  <path fill="#232326" fill-rule="evenodd" d="
    M 265 700
    C 238 662 244 596 286 545
    L 256 428 L 342 505
    L 330 338 L 416 470
    L 436 268 L 506 452
    L 546 254 L 592 452
    L 642 300 L 668 470
    L 736 378 L 742 472
    C 782 516 812 590 818 652
    L 802 692
    C 700 706 480 706 265 700
    Z
    M 648 478
    C 700 462 752 492 776 528
    C 796 560 806 610 808 646
    L 792 676
    C 744 682 690 680 656 668
    C 644 620 640 540 648 478
    Z
  "/>
  <!-- Eye inside the hollow face -->
  <circle cx="706" cy="562" r="23" fill="#232326"/>
  <!-- Nose dot floating right of the snout -->
  <circle cx="856" cy="664" r="27" fill="#232326"/>
  <!-- Coral paperclip standing in as one spike -->
  <g transform="rotate(-9 597 370)" fill="none" stroke="#E8705A" stroke-width="22" stroke-linecap="round">
    <path d="M 576 462 L 576 322 A 23 23 0 0 1 622 322 L 622 442 A 15 15 0 0 1 592 442 L 592 342"/>
  </g>
</svg>
