<?xml version="1.0" encoding="UTF-8"?>
<!-- Generated by Pixelmator Pro 4.3 -->
<svg viewBox="0 0 1240 740" xmlns="http://www.w3.org/2000/svg">
    <linearGradient id="linearGradient1" x1="0" y1="0" x2="1240" y2="740" gradientUnits="userSpaceOnUse">
        <stop offset="1e-05" stop-color="#f7f3ec" stop-opacity="1"/>
        <stop offset="1" stop-color="#efe7d8" stop-opacity="1"/>
    </linearGradient>
    <path id="path1" fill="url(#linearGradient1)" stroke="none" d="M 30 0 L 1210 0 C 1226.568604 0 1240 13.431458 1240 30 L 1240 710 C 1240 726.568542 1226.568604 740 1210 740 L 30 740 C 13.431458 740 0 726.568542 0 710 L 0 30 C -0 13.431458 13.431458 0 30 0 Z"/>
    <filter id="filter1" x="0" y="0" width="1240" height="740" filterUnits="userSpaceOnUse" primitiveUnits="userSpaceOnUse" color-interpolation-filters="sRGB">
        <feGaussianBlur stdDeviation="44"/>
    </filter>
    <path id="path2" fill="#ff6b57" stroke="none" opacity="0.08" filter="url(#filter1)" d="M 330 120 C 330 202.842712 262.842712 270 180 270 C 97.157288 270 30 202.842712 30 120 C 30 37.157288 97.157288 -30 180 -30 C 262.842712 -30 330 37.157288 330 120 Z"/>
    <filter id="filter2" x="0" y="0" width="1240" height="740" filterUnits="userSpaceOnUse" primitiveUnits="userSpaceOnUse" color-interpolation-filters="sRGB">
        <feGaussianBlur stdDeviation="44"/>
    </filter>
    <path id="path3" fill="#fffcf6" stroke="none" opacity="0.65" filter="url(#filter2)" d="M 1260 660 C 1260 759.411255 1179.411255 840 1080 840 C 980.588745 840 900 759.411255 900 660 C 900 560.588745 980.588745 480 1080 480 C 1179.411255 480 1260 560.588745 1260 660 Z"/>
    <g id="g1">
        <g id="g2">
            <linearGradient id="linearGradient2" x1="123.812768" y1="177.533734" x2="137.912165" y2="581.287628" gradientUnits="userSpaceOnUse">
                <stop offset="1e-05" stop-color="#fbf8f3" stop-opacity="1"/>
                <stop offset="1" stop-color="#f0ebe1" stop-opacity="1"/>
            </linearGradient>
            <path id="path4" fill="url(#linearGradient2)" stroke="none" d="M 139.803024 176.975342 L 647.493591 159.246399 C 656.324707 158.937988 663.733826 165.847107 664.042236 174.678284 L 677.024841 546.45166 C 677.333191 555.282837 670.424133 562.691895 661.592957 563.000305 L 153.90242 580.729248 C 145.071243 581.037598 137.66217 574.12854 137.353775 565.297363 L 124.371162 193.523987 C 124.062767 184.69281 130.971848 177.283752 139.803024 176.975342 Z"/>
        </g>
        <path id="path5" fill="none" stroke="#000000" stroke-width="1.5" stroke-opacity="0.1" d="M 139.803024 176.975342 L 647.493591 159.246399 C 656.324707 158.937988 663.733826 165.847107 664.042236 174.678284 L 677.024841 546.45166 C 677.333191 555.282837 670.424133 562.691895 661.592957 563.000305 L 153.90242 580.729248 C 145.071243 581.037598 137.66217 574.12854 137.353775 565.297363 L 124.371162 193.523987 C 124.062767 184.69281 130.971848 177.283752 139.803024 176.975342 Z"/>
        <g id="g3">
            <path id="path6" fill="none" stroke="#8c8f97" stroke-width="1.8" stroke-linecap="round" stroke-linejoin="round" d="M 156.45636 195.405396 L 149.670029 201.645996 L 156.875153 207.398071 M 174.445404 194.777161 L 181.650528 200.529236 L 174.864197 206.769897 M 168.34436 191.988403 L 162.976196 210.186829"/>
        </g>
        <text id="Google-Chrome" transform="matrix(0.999391 -0.034899 0.034899 0.999391 -6.82852 8.79436)" xml:space="preserve" x="190" y="206" font-family="Helvetica" font-size="16" fill="#7a7d85">Google Chrome</text>
        <g id="g4">
            <path id="path7" fill="none" stroke="#8c8f97" stroke-width="1.8" stroke-linecap="round" stroke-linejoin="round" d="M 556.561707 191.439514 L 566.206604 181.096558 L 570.34375 184.954529 L 560.698853 195.297424 L 555.736816 196.471313 L 556.561707 191.439514 Z"/>
        </g>
        <g id="g5">
            <path id="path8" fill="#ff6b57" stroke="none" d="M 596.7229 181.031555 L 605.717468 180.717468 C 607.097351 180.66925 608.255005 181.748779 608.303162 183.128662 L 608.512573 189.125 C 608.56073 190.504883 607.481262 191.662537 606.101318 191.710754 L 597.106812 192.024841 C 595.726929 192.072998 594.569275 190.993469 594.521118 189.613586 L 594.311707 183.617249 C 594.263489 182.237427 595.343018 181.079712 596.7229 181.031555 Z"/>
            <path id="path9" fill="#ff6b57" stroke="none" d="M 592.864929 185.168701 L 601.859497 184.854614 C 603.23938 184.806396 604.397034 185.885986 604.44519 187.265808 L 604.654602 193.262207 C 604.702759 194.642029 603.623291 195.799744 602.243347 195.8479 L 593.24884 196.161987 C 591.868958 196.210205 590.711304 195.130615 590.663147 193.750793 L 590.453735 187.754395 C 590.405518 186.374573 591.485046 185.216858 592.864929 185.168701 Z"/>
        </g>
        <g id="g6">
            <path id="path10" fill="none" stroke="#8c8f97" stroke-width="1.8" stroke-linecap="round" d="M 630.167603 178.863037 L 644.647705 192.365906 M 644.159119 178.374451 L 630.656189 192.854492"/>
        </g>
        <path id="path11" fill="#000000" stroke="#000000" stroke-width="1.5" stroke-opacity="0.08" d="M 125.627541 229.502045 L 665.298584 210.656311"/>
        <g id="g7">
            <text id="numint--123" transform="matrix(0.999391 -0.034899 0.034899 0.999391 -9.097813 7.786666)" xml:space="preserve"><tspan x="156" y="272" font-family="Helvetica" font-size="19" fill="#1f1f24" xml:space="preserve">num_int = </tspan><tspan font-family="Helvetica" font-size="19" fill="#204fc8" xml:space="preserve">123</tspan></text>
            <text id="numflo--123" transform="matrix(0.999391 -0.034899 0.034899 0.999391 -10.21216 7.945758)" xml:space="preserve"><tspan x="157" y="304" font-family="Helvetica" font-size="19" fill="#1f1f24" xml:space="preserve">num_flo = </tspan><tspan font-family="Helvetica" font-size="19" fill="#204fc8" xml:space="preserve">1.23</tspan></text>
            <text id="numnew--numint-" transform="matrix(0.999391 -0.034899 0.034899 0.999391 -11.635906 10.379408)" xml:space="preserve" x="159" y="346" font-family="Helvetica" font-size="19" fill="#1f1f24">num_new = num_int + num_flo</text>
            <text id="printnumint-" transform="matrix(0.999391 -0.034899 0.034899 0.999391 -13.300637 10.007)" xml:space="preserve"><tspan x="160" y="395" font-family="Helvetica" font-size="19" fill="#324fa1" xml:space="preserve">print</tspan><tspan font-family="Helvetica" font-size="19" fill="#1f1f24" xml:space="preserve">(</tspan><tspan font-family="Helvetica" font-size="19" fill="#c41a16" xml:space="preserve">"num_int 数据类型为:"</tspan><tspan font-family="Helvetica" font-size="19" fill="#1f1f24" xml:space="preserve">,</tspan></text>
            <text id="typenumint" transform="matrix(0.999391 -0.034899 0.034899 0.999391 -14.202453 9.341994)" xml:space="preserve"><tspan x="197" y="419" font-family="Helvetica" font-size="19" fill="#324fa1" xml:space="preserve">type</tspan><tspan font-family="Helvetica" font-size="19" fill="#1f1f24" xml:space="preserve">(num_int))</tspan></text>
            <text id="printnumnew--numnew" transform="matrix(0.999391 -0.034899 0.034899 0.999391 -15.76114 11.044887)" xml:space="preserve"><tspan x="163" y="466" font-family="Helvetica" font-size="19" fill="#324fa1" xml:space="preserve">print</tspan><tspan font-family="Helvetica" font-size="19" fill="#1f1f24" xml:space="preserve">(</tspan><tspan font-family="Helvetica" font-size="19" fill="#c41a16" xml:space="preserve">"num_new 值为:"</tspan><tspan font-family="Helvetica" font-size="19" fill="#1f1f24" xml:space="preserve">, num_new)</tspan></text>
            <text id="printnumnew" transform="matrix(0.999391 -0.034899 0.034899 0.999391 -17.32587 8.401574)" xml:space="preserve"><tspan x="164" y="508" font-family="Helvetica" font-size="19" fill="#324fa1" xml:space="preserve">print</tspan><tspan font-family="Helvetica" font-size="19" fill="#1f1f24" xml:space="preserve">(num_new)</tspan></text>
        </g>
    </g>
    <g id="g8">
        <g id="g9">
            <linearGradient id="linearGradient3" x1="725.860876" y1="111.399854" x2="714.86879" y2="363.160006" gradientUnits="userSpaceOnUse">
                <stop offset="1e-05" stop-color="#fbf8f3" stop-opacity="1"/>
                <stop offset="1" stop-color="#f0ebe1" stop-opacity="1"/>
            </linearGradient>
            <path id="path12" fill="url(#linearGradient3)" stroke="none" d="M 741.845642 112.097778 L 1129.476318 129.022095 C 1138.304443 129.407532 1145.148682 136.876648 1144.763184 145.704773 L 1135.166992 365.495392 C 1134.781494 374.323517 1127.312378 381.167694 1118.484253 380.782227 L 730.853577 363.85791 C 722.025452 363.472473 715.181274 356.003357 715.566711 347.175232 L 725.162964 127.384644 C 725.548401 118.556458 733.017517 111.712341 741.845642 112.097778 Z"/>
        </g>
        <path id="path13" fill="none" stroke="#000000" stroke-width="1.5" stroke-opacity="0.1" d="M 741.845642 112.097778 L 1129.476318 129.022095 C 1138.304443 129.407532 1145.148682 136.876648 1144.763184 145.704773 L 1135.166992 365.495392 C 1134.781494 374.323517 1127.312378 381.167694 1118.484253 380.782227 L 730.853577 363.85791 C 722.025452 363.472473 715.181274 356.003357 715.566711 347.175232 L 725.162964 127.384644 C 725.548401 118.556458 733.017517 111.712341 741.845642 112.097778 Z"/>
        <g id="g10">
            <path id="path14" fill="#000000" stroke="#8c8f97" stroke-width="1.8" stroke-linecap="round" d="M 748.878418 134.425781 L 766.861267 135.210938 M 748.573059 141.419128 L 766.555969 142.204285 M 748.267761 148.412476 L 759.257263 148.892273"/>
        </g>
        <text id="text1" transform="matrix(0.999048 0.043619 -0.043619 0.999048 7.189653 -35.497128)" xml:space="preserve" x="775" y="155" font-family="Helvetica" font-size="16" fill="#7a7d85">剪贴板便签</text>
        <g id="g11">
            <path id="path15" fill="none" stroke="#8c8f97" stroke-width="1.8" stroke-linecap="round" stroke-linejoin="round" d="M 1048.200317 156.503052 L 1058.626953 146.94873 L 1062.44873 151.119385 L 1052.021973 160.673706 L 1046.983154 161.454651 L 1048.200317 156.503052 Z"/>
        </g>
        <g id="g12">
            <path id="path16" fill="none" stroke="#8c8f97" stroke-width="1.6" d="M 1088.879883 153.274353 L 1097.871338 153.666931 C 1099.250732 153.727173 1100.320068 154.894226 1100.259888 156.273621 L 1099.998169 162.267883 C 1099.937866 163.647278 1098.770874 164.716736 1097.391479 164.656494 L 1088.400024 164.263916 C 1087.02063 164.203674 1085.951294 163.036621 1086.011475 161.657227 L 1086.273193 155.662964 C 1086.333374 154.283569 1087.500366 153.214172 1088.879883 153.274353 Z"/>
            <path id="path17" fill="none" stroke="#8c8f97" stroke-width="1.6" d="M 1085.058105 149.103699 L 1094.049561 149.496277 C 1095.428955 149.556519 1096.498413 150.723572 1096.43811 152.102966 L 1096.176392 158.097229 C 1096.116211 159.476624 1094.949219 160.546021 1093.569702 160.485779 L 1084.578369 160.093262 C 1083.198853 160.03302 1082.129517 158.865967 1082.189697 157.486572 L 1082.451416 151.492249 C 1082.511719 150.112854 1083.678711 149.043457 1085.058105 149.103699 Z"/>
        </g>
        <g id="g13">
            <path id="path18" fill="none" stroke="#8c8f97" stroke-width="1.8" stroke-linecap="round" d="M 1118.569824 149.565918 L 1131.945923 164.163269 M 1132.556519 150.176575 L 1117.959229 163.552551"/>
        </g>
        <path id="path19" fill="#000000" stroke="#000000" stroke-width="1.5" stroke-opacity="0.08" d="M 723.592651 163.350342 L 1143.192871 181.670532"/>
        <g id="g14">
            <text id="-" transform="matrix(0.999048 0.043619 -0.043619 0.999048 9.612908 -35.553353)" xml:space="preserve" x="749" y="211" font-family="Helvetica" font-size="18" fill="#24262b">· 整理素材库分类</text>
            <text id="text2" transform="matrix(0.999048 0.043619 -0.043619 0.999048 11.198435 -36.216999)" xml:space="preserve" x="747" y="247" font-family="Helvetica" font-size="18" fill="#24262b">· 导出上周截图给设计</text>
            <text id="text3" transform="matrix(0.999048 0.043619 -0.043619 0.999048 12.759215 -35.746541)" xml:space="preserve" x="746" y="283" font-family="Helvetica" font-size="18" fill="#24262b">· 回复三条待办消息</text>
        </g>
        <text id="--" transform="matrix(0.999048 0.043619 -0.043619 0.999048 15.343623 -35.188287)" xml:space="preserve" x="743" y="341" font-family="Helvetica" font-size="14" fill="#a7a9b0">固定在桌面 · 随时可见</text>
    </g>
    <g id="g15">
        <g id="g16">
            <linearGradient id="linearGradient4" x1="729.872413" y1="421.47359" x2="735.526634" y2="637.399572" gradientUnits="userSpaceOnUse">
                <stop offset="1e-05" stop-color="#fbf8f3" stop-opacity="1"/>
                <stop offset="1" stop-color="#f0ebe1" stop-opacity="1"/>
            </linearGradient>
            <path id="path20" fill="url(#linearGradient4)" stroke="none" d="M 745.866943 421.054749 L 1129.735352 411.002808 C 1138.568848 410.771484 1145.917358 417.744965 1146.148682 426.578491 L 1150.96521 610.515442 C 1151.196533 619.348938 1144.223022 626.69751 1135.389526 626.928772 L 751.521179 636.980713 C 742.687622 637.212036 735.339111 630.238586 735.107788 621.405029 L 730.29126 437.468109 C 730.059937 428.634583 737.033386 421.286072 745.866943 421.054749 Z"/>
        </g>
        <path id="path21" fill="none" stroke="#000000" stroke-width="1.5" stroke-opacity="0.1" d="M 745.866943 421.054749 L 1129.735352 411.002808 C 1138.568848 410.771484 1145.917358 417.744965 1146.148682 426.578491 L 1150.96521 610.515442 C 1151.196533 619.348938 1144.223022 626.69751 1135.389526 626.928772 L 751.521179 636.980713 C 742.687622 637.212036 735.339111 630.238586 735.107788 621.405029 L 730.29126 437.468109 C 730.059937 428.634583 737.033386 421.286072 745.866943 421.054749 Z"/>
        <g id="g17">
            <path id="path22" fill="none" stroke="#8c8f97" stroke-width="1.8" stroke-linecap="round" d="M 758.912354 441.720337 L 763.910645 441.589478 C 766.395081 441.524414 768.461853 443.485687 768.526917 445.970123 L 768.526917 445.970123 C 768.59198 448.454559 766.630676 450.521332 764.14624 450.586395 L 759.147949 450.717255 C 756.663513 450.782318 754.596741 448.821045 754.531677 446.336609 L 754.531677 446.336609 C 754.466614 443.852173 756.427917 441.7854 758.912354 441.720337 Z"/>
            <path id="path23" fill="none" stroke="#8c8f97" stroke-width="1.8" stroke-linecap="round" d="M 766.909607 441.510925 L 771.907898 441.380035 C 774.392334 441.315002 776.459106 443.276276 776.52417 445.760712 L 776.52417 445.760712 C 776.589233 448.245148 774.62793 450.31192 772.143494 450.376953 L 767.145203 450.507843 C 764.660767 450.572906 762.593994 448.611633 762.528931 446.127197 L 762.528931 446.127197 C 762.463928 443.642761 764.425171 441.575989 766.909607 441.510925 Z"/>
        </g>
        <text id="text4" transform="matrix(0.999657 -0.026177 0.026177 0.999657 -11.497948 21.671655)" xml:space="preserve" x="788" y="458" font-family="Helvetica" font-size="16" fill="#7a7d85">参考链接</text>
        <g id="g18">
            <path id="path24" fill="none" stroke="#8c8f97" stroke-width="1.8" stroke-linecap="round" stroke-linejoin="round" d="M 1050.574219 444.086334 L 1060.309082 433.828003 L 1064.412354 437.721924 L 1054.677612 447.980255 L 1049.705444 449.110809 L 1050.574219 444.086334 Z"/>
        </g>
        <g id="g19">
            <path id="path25" fill="none" stroke="#8c8f97" stroke-width="1.6" d="M 1090.929443 438.027893 L 1099.926392 437.792297 C 1101.306641 437.756165 1102.454834 438.845764 1102.490967 440.226013 L 1102.648071 446.223938 C 1102.684204 447.604187 1101.594604 448.75238 1100.214355 448.788544 L 1091.217407 449.024109 C 1089.837158 449.060272 1088.688965 447.970642 1088.652832 446.590424 L 1088.495728 440.592468 C 1088.459595 439.21225 1089.549194 438.064026 1090.929443 438.027893 Z"/>
            <path id="path26" fill="none" stroke="#8c8f97" stroke-width="1.6" d="M 1086.826172 434.133972 L 1095.822998 433.898376 C 1097.203369 433.862244 1098.35144 434.951843 1098.387695 436.332092 L 1098.544678 442.330017 C 1098.580811 443.710266 1097.491211 444.858459 1096.110962 444.894592 L 1087.114136 445.130188 C 1085.733765 445.166351 1084.585693 444.076721 1084.549561 442.696503 L 1084.392456 436.698547 C 1084.356323 435.318329 1085.445923 434.170105 1086.826172 434.133972 Z"/>
        </g>
        <g id="g20">
            <path id="path27" fill="none" stroke="#8c8f97" stroke-width="1.8" stroke-linecap="round" d="M 1120.288452 432.257385 L 1134.650146 445.886108 M 1134.283691 431.8909 L 1120.654907 446.252594"/>
        </g>
        <path id="path28" fill="#000000" stroke="#000000" stroke-width="1.5" stroke-opacity="0.08" d="M 731.233643 473.45578 L 1147.091064 462.566162"/>
        <text id="httpsgithubcomAgain0521HedgeMemo" transform="matrix(0.999657 -0.026177 0.026177 0.999657 -13.061502 24.231722)" xml:space="preserve" x="762" y="517" font-family="Helvetica" font-size="16" fill="#2f6bd8">https://github.com/Again0521/HedgeMemo</text>
        <text id="text5" transform="matrix(0.999657 -0.026177 0.026177 0.999657 -14.438295 23.05849)" xml:space="preserve" x="761" y="571" font-family="PingFang SC" font-size="17" fill="#24262b">随手将重要的内容固定到桌面</text>
        <text id="P---" transform="matrix(0.999657 -0.026177 0.026177 0.999657 -15.370937 21.81399)" xml:space="preserve" x="762" y="605" font-family="Helvetica" font-size="14" fill="#a7a9b0">⌥P 固定 / 取消固定</text>
    </g>
</svg>
